<?xml version="1.0" encoding="UTF-8"?>
<svg width="24px" height="24px" viewBox="0 0 24 24" version="1.1" xmlns="http://www.w3.org/2000/svg" xmlns:xlink="http://www.w3.org/1999/xlink">
    <title>0990370F-E1DE-4E6A-B5D5-62712335EDF1</title>
    <g id="AONWalet" stroke="none" stroke-width="1" fill="none" fill-rule="evenodd">
        <g id="Walet" transform="translate(-19.000000, -88.000000)" fill="#FFFFFF">
            <g id="Icons/Setting/General-Copy-2" transform="translate(19.000000, 88.000000)">
                <path d="M12,5.00891266 C7.45454545,5.00891266 3.54545455,7.82709447 2,11.8270945 C3.54545455,15.8270945 7.45454545,18.6452763 12,18.6452763 C16.5454545,18.6452763 20.4545455,15.8270945 22,11.8270945 C20.4545455,7.82709447 16.5454545,5.00891266 12,5.00891266 Z M12,16.372549 C9.45454545,16.372549 7.45454545,14.372549 7.45454545,11.8270945 C7.45454545,9.28163993 9.45454545,7.28163993 12,7.28163993 C14.5454545,7.28163993 16.5454545,9.28163993 16.5454545,11.8270945 C16.5454545,14.372549 14.5454545,16.372549 12,16.372549 Z M12,9.09982175 C10.4545455,9.09982175 9.27272727,10.2816399 9.27272727,11.8270945 C9.27272727,13.372549 10.4545455,14.5543672 12,14.5543672 C13.5454545,14.5543672 14.7272727,13.372549 14.7272727,11.8270945 C14.7272727,10.2816399 13.5454545,9.09982175 12,9.09982175 Z" id="Shape"></path>
            </g>
        </g>
    </g>
</svg>