<?xml version="1.0" encoding="UTF-8"?>
<svg width="36px" height="36px" viewBox="0 0 36 36" version="1.1" xmlns="http://www.w3.org/2000/svg" xmlns:xlink="http://www.w3.org/1999/xlink">
    <title>D7265C06-CF45-4C2B-8975-1980F52CB155</title>
    <g id="AONWalet" stroke="none" stroke-width="1" fill="none" fill-rule="evenodd">
        <g id="Login" transform="translate(-707.000000, -432.000000)" fill="#2334D0">
            <g id="Icons/Setting/Password" transform="translate(707.000000, 432.000000)">
                <g id="key" transform="translate(6.000000, 6.000000)">
                    <path d="M21.7381875,2.26176562 C18.7224375,-0.753984375 13.8157031,-0.7539375 10.7999531,2.2618125 C8.74003125,4.32173437 8.02453125,7.35740625 8.91646875,10.1115469 L0.2060625,18.822 C0.074203125,18.9538594 4.6875e-05,19.1323594 4.6875e-05,19.3191562 L4.6875e-05,23.296875 C4.6875e-05,23.6855156 0.31453125,24 0.703171875,24 L4.68089063,24 C4.86764062,24 5.0461875,23.9258437 5.178,23.7939844 L6.17226563,22.7990156 C6.324,22.6472812 6.39815625,22.4344219 6.37345313,22.2208594 L6.24984375,21.1524375 L7.73025,21.0130312 C8.06671875,20.9814375 8.33245313,20.7157031 8.36404688,20.3792344 L8.50345313,18.8988281 L9.571875,19.0230937 C9.77029688,19.0498594 9.970125,18.98325 10.1205,18.8500781 C10.2701719,18.7162031 10.356,18.5252812 10.356,18.3247969 L10.356,17.015625 L11.6414063,17.015625 C11.8281563,17.015625 12.0067031,16.9414687 12.1385156,16.8096094 L13.9416563,15.0303281 C16.6950938,15.9229687 19.6782656,15.261375 21.7381875,13.2000469 C24.7539375,10.1843437 24.7539375,5.27751562 21.7381875,2.26176562 Z M19.7490469,7.23379688 C18.9264375,8.05640625 17.5888594,8.05640625 16.76625,7.23379688 C15.9436406,6.4111875 15.9436406,5.07360938 16.76625,4.251 C17.5888594,3.42839062 18.9264375,3.42839062 19.7490469,4.251 C20.5716563,5.07360938 20.5716094,6.4111875 19.7490469,7.23379688 Z" id="Shape"></path>
                </g>
            </g>
        </g>
    </g>
</svg>