<?xml version="1.0" encoding="UTF-8"?>
<svg width="36px" height="36px" viewBox="0 0 36 36" version="1.1" xmlns="http://www.w3.org/2000/svg" xmlns:xlink="http://www.w3.org/1999/xlink">
    <title>9DB325C2-2096-4F4C-919F-F5B698222B29</title>
    <g id="AONWalet" stroke="none" stroke-width="1" fill="none" fill-rule="evenodd">
        <g id="Login" transform="translate(-638.000000, -432.000000)" fill="#FFFFFF">
            <g id="Icons/Menu/Tab4" transform="translate(638.000000, 432.000000)">
                <path d="M19.1211,4.7964375 L28.87575,10.3704375 C29.57685,10.7710875 30.00945,11.5165875 30.00945,12.3240375 L30.00945,23.4322875 C30.00945,24.2397375 29.57685,24.9852375 28.87575,25.3857375 L19.1211,30.9598875 C18.4293,31.3551375 17.58015,31.3551375 16.88835,30.9598875 L7.1337,25.3857375 C6.43275,24.9852375 6,24.2397375 6,23.4322875 L6,12.3240375 C6,11.5165875 6.43275,10.7710875 7.1337,10.3704375 L16.88835,4.7964375 C17.58015,4.4011875 18.4293,4.4011875 19.1211,4.7964375 Z M18.0048,21.6280875 C20.07585,21.6280875 21.7548,19.9491375 21.7548,17.8780875 C21.7548,15.8070375 20.07585,14.1280875 18.0048,14.1280875 C15.9336,14.1280875 14.2548,15.8070375 14.2548,17.8780875 C14.2548,19.9491375 15.9336,21.6280875 18.0048,21.6280875 Z" id="Shape"></path>
            </g>
        </g>
    </g>
</svg>