<?xml version="1.0" encoding="UTF-8"?>
<svg width="24px" height="24px" viewBox="0 0 24 24" version="1.1" xmlns="http://www.w3.org/2000/svg" xmlns:xlink="http://www.w3.org/1999/xlink">
    <title>CC9B4C7C-FBA9-49E1-A778-55805419E3B1</title>
    <g id="AONWalet" stroke="none" stroke-width="1" fill="none" fill-rule="evenodd">
        <g id="Walet" transform="translate(-19.000000, -125.000000)">
            <g id="Icons/Setting/General-Copy" transform="translate(19.000000, 125.000000)">
                <g id="Group-136" transform="translate(5.000000, 3.000000)">
                    <path d="M3.6,4.4999775 C3.1032,4.4999775 2.7,4.0970475 2.7,3.5999775 C2.7,3.1029075 3.1032,2.6999775 3.6,2.6999775 L10.8,2.6999775 C12.7881,2.6999775 14.4,4.3117875 14.4,6.2999775 C14.4,8.2881675 12.7881,9.8999775 10.8,9.8999775 L3.6,9.8999775 C2.6055,9.8999775 1.8,10.7058375 1.8,11.6999775 C1.8,12.6941175 2.6055,13.4999775 3.6,13.4999775 L11.7,13.4999775 C12.1968,13.4999775 12.6,13.9029075 12.6,14.3999775 C12.6,14.8967775 12.1968,15.2999775 11.7,15.2999775 L3.6,15.2999775 C1.6119,15.2999775 0,13.6881675 0,11.6999775 C0,9.7117875 1.6119,8.0999775 3.6,8.0999775 L10.8,8.0999775 C11.7945,8.0999775 12.6,7.2941175 12.6,6.2999775 C12.6,5.3058375 11.7945,4.4999775 10.8,4.4999775 L3.6,4.4999775 Z" id="Path" fill="#FFFFFF"></path>
                    <path d="M5.1363,5.6635875 C5.4882,6.0150375 5.4882,6.5849175 5.1363,6.9363675 C4.7853,7.2878175 4.2147,7.2878175 3.8637,6.9363675 L1.1637,4.2363675 C0.8118,3.8849175 0.8118,3.3150375 1.1637,2.9635875 L3.8637,0.2635875 C4.2147,-0.0878625 4.7853,-0.0878625 5.1363,0.2635875 C5.4882,0.6150375 5.4882,1.1849175 5.1363,1.5363675 L3.0726,3.5999775 L5.1363,5.6635875 Z" id="Path" fill="#2334D0"></path>
                    <path d="M9.2637,16.4636775 C8.9118,16.8146775 8.9118,17.3852775 9.2637,17.7362775 C9.6147,18.0881775 10.1853,18.0881775 10.5363,17.7362775 L13.2363,15.0362775 C13.5882,14.6852775 13.5882,14.1150375 13.2363,13.7635875 L10.5363,11.0635875 C10.1853,10.7121375 9.6147,10.7121375 9.2637,11.0635875 C8.9118,11.4150375 8.9118,11.9849175 9.2637,12.3363675 L11.3274,14.3999775 L9.2637,16.4636775 Z" id="Path" fill="#FFFFFF"></path>
                </g>
            </g>
        </g>
    </g>
</svg>