<?xml version="1.0" encoding="UTF-8"?>
<svg width="24px" height="24px" viewBox="0 0 24 24" version="1.1" xmlns="http://www.w3.org/2000/svg" xmlns:xlink="http://www.w3.org/1999/xlink">
    <title>722250F8-9573-4910-B76E-C360A5AAB7EE</title>
    <defs>
        <filter id="filter-1">
            <feColorMatrix in="SourceGraphic" type="matrix" values="0 0 0 0 1.000000 0 0 0 0 1.000000 0 0 0 0 1.000000 0 0 0 1.000000 0"></feColorMatrix>
        </filter>
    </defs>
    <g id="AONWalet" stroke="none" stroke-width="1" fill="none" fill-rule="evenodd">
        <g id="Walet" transform="translate(-19.000000, -155.000000)">
            <g id="gear" transform="translate(19.000000, 155.000000)" filter="url(#filter-1)">
                <g transform="translate(4.000000, 4.000000)">
                    <path d="M16.1304146,10.2605176 L14.5832842,9.05071763 C14.6029106,8.864152 14.6197426,8.64605925 14.6197426,8.41530963 C14.6197426,8.18456 14.603601,7.96646725 14.5832842,7.77990163 L16.1318282,6.56941125 C16.4193859,6.34217925 16.4979242,5.93890163 16.3148762,5.60298488 L14.7060066,2.81936 C14.534169,2.50517363 14.157553,2.343856 13.7753482,2.484824 L11.9497666,3.21770638 C11.5998122,2.96522638 11.232993,2.752032 10.8535826,2.581608 L10.5758546,0.645237625 C10.530257,0.277728 10.210449,0 9.83245225,0 L6.60632988,0 C6.22830025,0 5.9092155,0.277728 5.86430825,0.639616 L5.58588988,2.58302163 C5.21838025,2.74854725 4.8572155,2.95894725 4.49180988,3.21912 L2.66132988,2.48413363 C2.318345,2.35158163 1.908065,2.50024238 1.737641,2.813048 L0.12670025,5.60015763 C-0.063350125,5.92137925 0.01518825,6.33866163 0.309057875,6.57151525 L1.85618825,7.78131525 C1.83163062,8.01765363 1.81972987,8.22315525 1.81972987,8.41603288 C1.81972987,8.6089105 1.8316635,8.81437925 1.85618825,9.05144088 L0.30764425,10.2619312 C0.020086625,10.4898536 -0.057761375,10.8931312 0.125286625,11.2283576 L1.73415625,14.0119496 C1.90599387,14.3254456 2.27909225,14.488144 2.66481462,14.3464856 L4.49039625,13.6136032 C4.83966025,13.8653929 5.20644662,14.0785872 5.58588987,14.2497016 L5.86361788,16.1853816 C5.90918262,16.554272 6.22830025,16.832 6.60702025,16.832 L9.83314262,16.832 C10.2111722,16.832 10.5309802,16.554272 10.5758546,16.192384 L10.854273,14.2497016 C11.2217826,14.0834856 11.582257,13.873776 11.948353,13.61288 L13.778833,14.3478664 C13.867201,14.3822208 13.9590866,14.399776 14.0537666,14.399776 C14.325873,14.399776 14.576249,14.2510824 14.702489,14.0196424 L16.318361,11.2213224 C16.4979242,10.8930984 16.419353,10.4898536 16.1304146,10.2605176 Z M8.21937463,11.2213224 C6.67224425,11.2213224 5.41405225,9.96313038 5.41405225,8.416 C5.41405225,6.86886962 6.67224425,5.61067763 8.21937463,5.61067763 C9.766505,5.61067763 11.024697,6.86886963 11.024697,8.416 C11.024697,9.96313038 9.766505,11.2213224 8.21937463,11.2213224 Z" id="Shape" fill="#FFFFFF"></path>
                </g>
            </g>
        </g>
    </g>
</svg>