<?xml version="1.0" encoding="UTF-8"?>
<svg width="36px" height="36px" viewBox="0 0 36 36" version="1.1" xmlns="http://www.w3.org/2000/svg" xmlns:xlink="http://www.w3.org/1999/xlink">
    <title>923FD5DB-1FB5-4EE9-904F-0C5E33FA6644</title>
    <g id="AONWalet" stroke="none" stroke-width="1" fill="none" fill-rule="evenodd">
        <g id="Login" transform="translate(-759.000000, -432.000000)" fill="#2334D0">
            <g id="Icons/Navigation/-Scan" transform="translate(759.000000, 432.000000)">
                <g id="Group-45" transform="translate(7.500000, 7.500000)">
                    <path d="M14.4375,2.625 L18.375,2.625 L18.375,6.5625 C18.375,7.4379375 18.8120625,7.875 19.6875,7.875 C20.5629375,7.875 21,7.4379375 21,6.5625 L21,1 C21,0.44771525 20.5522847,-1.01453063e-16 20,0 L14.4375,0 L14.4375,0 C13.5620625,0.149625 13.125,0.588 13.125,1.3125 C13.125,2.037 13.5620625,2.475375 14.4375,2.625 Z M6.5625,18.375 L2.625,18.375 L2.625,14.4375 C2.625,13.5620625 2.1879375,13.125 1.3125,13.125 C0.4370625,13.125 0,13.5620625 0,14.4375 L0,20 C6.76353751e-17,20.5522847 0.44771525,21 1,21 L6.5625,21 L6.5625,21 C7.4379375,20.850375 7.875,20.412 7.875,19.6875 C7.875,18.963 7.4379375,18.524625 6.5625,18.375 Z" id="Shape"></path>
                    <path d="M2.625,6.5625 L2.625,2.625 L6.5625,2.625 C7.4379375,2.625 7.875,2.1879375 7.875,1.3125 C7.875,0.4370625 7.4379375,0 6.5625,0 L1,0 C0.44771525,1.01453063e-16 -6.76353751e-17,0.44771525 0,1 L0,6.5625 L0,6.5625 C0.149625,7.4379375 0.588,7.875 1.3125,7.875 C2.037,7.875 2.475375,7.4379375 2.625,6.5625 Z M18.375,14.4375 L18.375,18.375 L14.4375,18.375 C13.5620625,18.375 13.125,18.8120625 13.125,19.6875 C13.125,20.5629375 13.5620625,21 14.4375,21 L20,21 C20.5522847,21 21,20.5522847 21,20 L21,14.4375 L21,14.4375 C20.850375,13.5620625 20.412,13.125 19.6875,13.125 C18.963,13.125 18.524625,13.5620625 18.375,14.4375 Z" id="Shape"></path>
                </g>
            </g>
        </g>
    </g>
</svg>